<?xml version="1.0" standalone="no"?>
<!DOCTYPE svg PUBLIC "-//W3C//DTD SVG 20010904//EN"
 "http://www.w3.org/TR/2001/REC-SVG-20010904/DTD/svg10.dtd">
<svg version="1.0" xmlns="http://www.w3.org/2000/svg"
 width="1972.000000pt" height="1972.000000pt" viewBox="0 0 1972.000000 1972.000000"
 preserveAspectRatio="xMidYMid meet">

<g transform="translate(0.000000,1972.000000) scale(0.100000,-0.100000)"
fill="#000000" stroke="none">
<path d="M1340 19709 c-354 -41 -643 -181 -896 -433 -224 -224 -353 -466 -416
-779 l-23 -112 0 -8525 0 -8525 23 -112 c63 -313 192 -555 416 -779 229 -228
493 -367 806 -421 101 -17 428 -18 8610 -18 8182 0 8509 1 8610 18 313 54 577
193 806 421 224 224 353 466 416 779 l23 112 0 8525 0 8525 -23 112 c-63 313
-192 555 -416 779 -225 225 -481 360 -796 421 -92 17 -402 18 -8580 19 -4714
1 -8518 -2 -8560 -7z m9394 -3605 c9 -3 13 -10 10 -15 -3 -5 -4 -9 -2 -9 34 0
385 -32 431 -40 35 -5 108 -14 162 -20 178 -18 548 -80 755 -126 209 -47 324
-74 375 -89 28 -8 75 -21 105 -29 99 -26 216 -62 229 -70 7 -5 34 -14 59 -21
58 -16 152 -49 212 -74 218 -91 350 -154 453 -215 43 -25 80 -46 82 -46 9 0
145 -98 211 -152 98 -79 211 -202 260 -285 41 -69 77 -165 90 -238 4 -22 11
-46 17 -52 7 -10 234 -13 1071 -13 1175 0 1132 2 1265 -66 123 -62 224 -170
285 -304 49 -107 57 -197 55 -632 0 -320 2 -401 13 -417 12 -17 103 -116 334
-360 44 -47 129 -140 189 -206 60 -66 137 -149 171 -185 68 -73 765 -819 859
-920 33 -35 99 -105 146 -155 47 -49 119 -126 158 -170 40 -44 86 -87 102 -95
l29 -15 0 -711 0 -712 -22 -6 c-13 -3 -286 -6 -609 -6 -441 0 -588 -3 -597
-12 -9 -9 -12 -693 -12 -3015 l0 -3003 -187 2 -188 3 -2 3000 c-1 1649 -4
3004 -7 3010 -4 12 -14744 14 -14764 2 -9 -7 -12 -628 -12 -3013 l0 -3004
-180 0 -180 0 0 3003 c0 2322 -3 3006 -12 3015 -9 9 -156 12 -597 12 -323 0
-596 3 -608 6 l-23 6 0 714 c0 616 2 714 14 714 8 0 50 37 93 82 43 45 126
132 184 193 59 60 123 129 143 153 19 24 104 116 189 205 393 415 485 512 521
555 22 26 87 97 146 157 59 61 167 175 240 255 74 80 179 192 234 250 56 58
134 142 174 188 l72 83 0 437 c0 350 3 449 15 500 51 214 254 413 462 451 37
7 414 11 1114 11 1184 0 1078 -8 1086 78 2 26 8 56 13 67 56 129 87 184 133
242 92 113 211 220 347 308 41 27 86 56 100 65 66 45 427 220 451 220 5 0 28
9 52 19 44 21 137 54 197 72 19 6 58 19 85 29 109 41 391 116 665 178 189 43
618 115 785 132 55 6 125 15 155 20 43 7 397 40 433 40 4 0 6 4 3 9 -4 5 0 12
6 14 18 8 1743 8 1762 1z m-3880 -7339 c16 -11 40 -27 53 -37 48 -31 104 -91
99 -104 -3 -8 -1 -14 3 -14 23 0 33 -144 29 -440 l-3 -305 -27 -55 c-15 -30
-42 -66 -59 -80 -18 -14 -43 -35 -56 -47 -52 -50 3 -48 -1203 -53 l-1135 -5
-3 -402 -2 -403 953 0 c821 0 960 -2 1004 -15 38 -11 67 -31 116 -78 103 -99
101 -88 105 -470 4 -365 -1 -404 -60 -469 -16 -18 -37 -41 -46 -52 -9 -10 -37
-28 -62 -40 -45 -21 -50 -21 -1025 -26 l-980 -5 0 -445 0 -445 1150 -5 c1054
-5 1153 -6 1188 -22 20 -9 37 -22 37 -27 0 -6 7 -11 15 -11 17 0 74 -59 75
-76 0 -6 9 -21 19 -33 37 -42 43 -110 39 -441 -3 -301 -4 -317 -25 -363 -13
-27 -34 -58 -48 -69 -14 -11 -25 -26 -25 -33 0 -16 -34 -38 -44 -28 -3 3 -6 1
-6 -6 0 -7 -20 -21 -44 -32 -43 -19 -77 -19 -1753 -17 l-1709 3 -57 35 c-31
19 -57 40 -57 47 0 7 -11 20 -25 29 -13 8 -34 37 -47 62 l-23 47 -3 2339 c-3
2607 -7 2420 66 2498 41 44 100 86 147 105 23 9 440 11 1715 10 1668 -2 1686
-2 1714 -22z m3171 3 c255 -39 327 -52 415 -75 109 -29 393 -137 415 -159 8
-8 17 -15 20 -14 19 1 26 -2 43 -20 11 -11 29 -22 41 -25 35 -7 241 -142 241
-158 0 -11 51 -55 73 -62 9 -4 17 -10 17 -15 0 -5 19 -28 43 -52 39 -41 84
-92 142 -163 14 -16 25 -35 25 -41 0 -6 9 -22 20 -36 44 -57 142 -267 154
-330 2 -13 11 -52 19 -88 39 -162 42 -188 41 -395 0 -191 -2 -221 -28 -335
-15 -69 -29 -134 -31 -144 -11 -48 -32 -100 -87 -211 -77 -159 -98 -193 -141
-238 -21 -20 -37 -42 -37 -48 0 -12 -25 -39 -178 -195 -56 -57 -108 -104 -115
-104 -7 0 -20 -8 -28 -17 -27 -31 -73 -64 -101 -75 -16 -5 -28 -14 -28 -18 0
-12 -110 -70 -132 -70 -10 0 -18 -4 -18 -8 0 -5 -17 -17 -37 -28 -21 -10 -40
-20 -42 -22 -15 -8 117 -182 203 -267 40 -39 66 -70 169 -197 26 -33 62 -75
80 -93 17 -19 46 -50 62 -70 17 -20 42 -48 58 -63 15 -14 27 -32 27 -38 0 -6
25 -36 55 -67 30 -31 55 -62 55 -69 0 -8 22 -34 50 -58 27 -25 50 -51 50 -58
0 -7 20 -33 45 -56 25 -24 45 -47 45 -50 0 -4 23 -30 50 -58 28 -28 50 -55 50
-61 0 -11 76 -87 88 -87 5 0 19 26 32 58 13 31 35 84 50 117 15 33 31 71 35
85 4 14 21 54 37 90 17 36 38 83 48 105 9 22 29 66 44 98 14 32 26 61 26 66 0
9 25 67 80 186 20 44 45 101 55 128 10 26 22 47 27 47 5 0 8 6 6 13 -4 23 65
187 79 187 5 0 9 10 9 23 1 19 27 88 69 182 7 17 20 47 29 68 8 20 20 37 26
37 6 0 9 4 5 9 -3 5 13 51 36 103 23 51 42 98 43 103 2 6 10 27 19 49 9 21 17
40 17 42 0 1 13 31 29 66 66 146 81 181 81 189 0 5 18 49 41 97 22 48 61 137
85 197 24 61 49 119 54 130 5 11 30 67 56 125 25 58 55 124 65 147 10 23 19
48 19 55 0 8 4 18 8 24 5 5 15 25 22 44 31 81 81 180 90 180 5 0 7 6 4 14 -3
8 2 29 11 46 9 18 18 39 20 48 7 35 36 92 46 92 5 0 8 4 4 9 -3 5 7 38 23 73
16 35 41 95 57 133 16 39 33 76 39 84 6 7 11 19 12 27 2 15 53 139 77 189 31
62 57 124 57 134 0 5 26 68 58 138 33 70 67 149 77 176 10 26 22 47 27 47 5 0
6 4 3 10 -12 20 20 61 103 131 70 59 66 59 623 59 422 0 516 -2 544 -14 19 -8
35 -20 35 -25 0 -6 8 -11 18 -11 18 0 112 -84 112 -100 0 -4 17 -46 38 -92 48
-103 109 -244 161 -368 21 -52 52 -124 69 -160 16 -36 33 -76 37 -90 4 -14 21
-54 37 -90 16 -36 41 -92 55 -125 14 -33 31 -73 38 -90 8 -16 26 -59 40 -95
15 -36 35 -83 45 -105 54 -120 75 -169 110 -255 21 -52 49 -120 63 -150 13
-30 36 -82 49 -115 14 -33 40 -94 58 -135 18 -41 78 -183 135 -315 56 -132
114 -266 129 -298 14 -32 26 -62 26 -67 0 -5 13 -37 29 -72 71 -156 85 -188
116 -268 18 -47 49 -119 68 -160 20 -41 58 -129 85 -195 45 -109 75 -178 215
-505 25 -58 57 -134 72 -170 15 -36 50 -116 78 -179 102 -234 169 -397 171
-416 0 -11 7 -24 13 -30 19 -15 43 -104 43 -160 0 -48 -18 -124 -39 -162 -21
-41 -114 -125 -158 -144 -44 -19 -66 -19 -507 -17 l-461 3 -48 24 c-26 14 -54
35 -62 47 -8 13 -26 34 -41 49 -14 14 -44 65 -66 113 -22 48 -68 146 -103 217
-35 72 -81 168 -103 215 -22 47 -81 170 -131 274 -50 103 -91 192 -91 197 0 5
-10 11 -22 14 -13 3 -414 4 -893 3 l-870 -3 -47 -95 c-26 -52 -52 -100 -57
-106 -5 -7 -8 -14 -5 -16 2 -3 -21 -56 -51 -119 -31 -63 -62 -127 -70 -144 -8
-16 -39 -84 -70 -150 -31 -66 -62 -127 -69 -135 -6 -8 -18 -33 -25 -55 -23
-69 -101 -225 -113 -225 -6 0 -26 -16 -44 -35 -17 -19 -51 -44 -75 -55 -43
-19 -69 -20 -1045 -20 l-1001 0 -59 30 c-35 17 -68 43 -81 62 -12 19 -45 58
-73 88 -27 30 -50 60 -50 66 0 7 -11 19 -24 28 -14 8 -28 25 -32 38 -3 12 -29
45 -55 72 -27 28 -49 54 -49 57 0 4 -13 21 -30 39 -16 18 -30 38 -30 44 0 7
-12 23 -26 37 -15 13 -44 48 -67 78 -22 29 -57 72 -79 94 -22 22 -45 55 -52
71 -8 17 -39 58 -70 91 -30 33 -56 65 -56 71 0 6 -17 28 -37 49 -21 21 -42 49
-48 61 -5 13 -30 45 -55 71 -47 50 -81 91 -115 139 -11 15 -30 38 -42 50 -13
13 -23 27 -23 31 0 5 -20 31 -45 60 -25 28 -45 55 -45 60 0 5 -18 27 -40 48
-22 21 -40 43 -40 48 0 13 -36 58 -105 132 l-60 64 -175 1 c-96 1 -180 1 -187
0 -10 0 -13 -173 -15 -772 -3 -767 -3 -773 -24 -819 -12 -26 -30 -56 -40 -67
-11 -11 -29 -31 -42 -46 -13 -14 -47 -37 -77 -51 l-54 -25 -436 0 -436 0 -55
26 c-30 14 -54 30 -54 35 0 5 -16 19 -35 30 -23 14 -44 39 -62 77 l-28 57 0
2365 0 2365 34 63 c19 34 38 62 42 62 9 0 41 24 68 52 47 48 26 47 1141 44
882 -2 1061 -5 1145 -18z"/>
<path d="M8110 15598 c-81 -31 -151 -105 -178 -190 -23 -71 -28 -123 -13 -133
5 -3 12 -18 16 -35 17 -79 107 -151 239 -192 58 -18 75 -19 100 -9 27 10 33 9
45 -9 8 -12 42 -28 84 -41 39 -11 81 -28 94 -36 53 -35 70 -128 33 -187 -30
-49 -86 -76 -178 -83 -128 -9 -245 19 -321 78 -81 64 -169 -39 -90 -106 90
-75 205 -109 369 -109 107 0 133 3 184 24 71 27 147 94 176 154 27 56 28 174
1 231 -30 66 -108 129 -207 164 -98 36 -102 36 -131 16 -20 -14 -23 -14 -32 4
-7 12 -37 27 -79 40 -116 35 -162 78 -162 151 0 150 204 204 408 108 73 -33
111 -29 126 14 21 60 -23 108 -137 148 -82 29 -269 28 -347 -2z"/>
<path d="M8923 15608 c-42 -20 -44 -40 -41 -542 l3 -478 25 -20 c28 -23 77
-18 98 9 9 13 12 131 12 508 0 456 -1 493 -17 507 -26 22 -55 28 -80 16z"/>
<path d="M9635 15608 c-43 -23 -45 -33 -45 -250 l0 -208 -263 0 c-296 0 -297
0 -297 -73 0 -65 10 -67 302 -67 l258 0 0 -205 0 -206 26 -26 c20 -20 31 -24
57 -19 18 3 38 14 45 23 9 13 12 131 12 508 0 456 -1 493 -17 507 -26 23 -55
29 -78 16z"/>
<path d="M10214 15581 c-130 -65 -215 -175 -244 -316 -15 -72 -16 -289 -1
-365 27 -137 119 -259 236 -315 114 -53 185 -42 185 31 0 38 -20 61 -58 70
-97 21 -157 66 -196 147 -34 69 -49 210 -37 341 8 78 15 106 42 156 55 104
143 155 265 155 94 -1 169 -37 225 -107 57 -73 73 -136 73 -298 0 -196 -28
-275 -122 -347 -24 -18 -61 -36 -83 -39 -56 -9 -89 -38 -89 -78 0 -50 28 -70
87 -62 149 20 288 154 329 318 14 55 18 109 18 218 -1 152 -13 220 -56 304
-33 65 -122 150 -195 187 -63 32 -74 34 -182 37 l-116 3 -81 -40z"/>
<path d="M11130 15608 c-70 -26 -70 -25 -70 -546 l0 -463 25 -24 c13 -14 31
-25 40 -25 20 0 57 19 67 34 4 6 8 100 8 210 0 197 0 198 19 175 17 -22 28
-24 119 -27 244 -9 372 47 443 192 25 51 29 71 29 143 0 46 -4 91 -10 101 -5
9 -17 35 -26 56 -27 60 -83 112 -160 148 l-69 32 -190 3 c-134 2 -200 -1 -225
-9z m457 -160 c54 -30 78 -81 78 -169 0 -65 -4 -81 -27 -116 -42 -64 -79 -76
-256 -82 -137 -5 -155 -8 -168 -25 -12 -17 -14 8 -14 198 l0 218 178 -4 c144
-2 183 -6 209 -20z"/>
<path d="M4713 13325 c-12 -8 -45 -50 -74 -92 -29 -43 -67 -98 -84 -123 -17
-25 -67 -97 -110 -160 -44 -63 -103 -149 -132 -190 -29 -41 -86 -124 -127
-185 -41 -60 -96 -139 -121 -175 -25 -36 -56 -81 -70 -100 -13 -19 -64 -93
-114 -165 -49 -71 -115 -166 -145 -210 -30 -44 -93 -136 -141 -205 -47 -69
-111 -161 -141 -205 -30 -44 -96 -138 -145 -210 -50 -71 -102 -147 -115 -168
l-25 -37 1 -682 c0 -537 3 -683 12 -690 7 -4 593 -7 1303 -5 l1290 2 5 700 5
700 34 75 c36 81 54 124 124 295 24 61 68 166 97 235 29 69 59 143 66 165 8
22 19 49 24 60 21 45 63 145 97 230 19 50 41 104 48 120 7 17 30 72 49 123 20
51 41 101 46 110 5 9 18 40 29 67 21 56 92 230 140 345 18 41 47 116 67 165
19 50 44 108 55 130 12 22 19 51 18 65 l-4 25 -970 3 c-848 2 -973 0 -992 -13z"/>
<path d="M8731 13327 c-13 -16 -37 -128 -46 -217 -3 -36 -13 -104 -21 -152 -8
-47 -21 -137 -29 -200 -30 -236 -66 -460 -75 -478 -6 -10 -10 -38 -10 -62 0
-24 -7 -90 -15 -148 -8 -58 -26 -184 -40 -280 -14 -96 -34 -241 -45 -322 -11
-81 -26 -185 -34 -231 -12 -68 -15 -220 -17 -790 0 -388 2 -710 6 -716 10 -17
2525 -15 2548 2 16 11 17 59 14 722 -3 655 -5 723 -25 880 -21 173 -59 482
-87 725 -8 74 -22 182 -30 240 -7 58 -19 155 -25 215 -6 61 -15 137 -20 170
-5 33 -19 146 -30 252 -11 105 -25 215 -30 244 -6 28 -10 69 -10 90 0 74 79
69 -999 69 -792 0 -971 -2 -980 -13z"/>
<path d="M12753 13333 c-21 -8 -15 -37 26 -140 21 -54 58 -147 81 -208 23 -60
53 -135 66 -166 13 -31 24 -60 24 -65 0 -5 29 -83 64 -174 36 -91 81 -208 101
-260 94 -247 129 -338 146 -377 11 -24 19 -46 19 -50 0 -5 27 -78 61 -163 62
-158 86 -221 114 -300 9 -25 41 -107 71 -182 l54 -136 0 -686 c0 -667 1 -686
19 -696 13 -7 430 -10 1280 -10 1234 0 1261 0 1271 19 6 13 9 245 7 693 l-2
673 -36 55 c-20 30 -61 93 -91 140 -30 47 -89 137 -130 200 -41 63 -96 150
-124 193 -27 42 -95 148 -151 235 -126 193 -162 248 -248 382 -37 58 -93 143
-123 190 -30 47 -74 114 -97 150 -23 36 -77 119 -120 185 -43 66 -97 149 -120
185 -128 200 -199 301 -215 310 -19 10 -1923 13 -1947 3z"/>
<path d="M8948 7765 c-5 -5 -8 -322 -8 -706 l0 -697 293 -7 c476 -12 685 19
862 128 39 24 81 50 94 58 22 13 53 43 107 101 11 13 39 53 61 90 118 197 130
419 34 619 -17 34 -31 66 -31 70 0 4 -11 20 -25 35 -14 15 -25 32 -25 39 0 9
-72 86 -114 120 -17 14 -104 63 -155 87 -87 40 -258 56 -687 64 -220 3 -402 3
-406 -1z"/>
<path d="M14335 7234 c-8 -20 -15 -40 -15 -45 0 -4 -36 -94 -80 -200 -44 -105
-85 -209 -92 -231 -6 -22 -18 -42 -25 -45 -7 -3 -11 -9 -8 -13 3 -4 -16 -57
-41 -116 -25 -60 -57 -137 -69 -172 -24 -64 -105 -264 -221 -542 -36 -85 -66
-159 -67 -165 -2 -12 1273 -19 1285 -7 7 7 -45 152 -78 213 -7 14 -25 59 -39
100 -15 41 -36 94 -47 119 -11 25 -45 106 -75 180 -30 74 -85 209 -123 300
-37 91 -86 210 -108 265 -22 55 -56 138 -75 185 -19 47 -45 113 -58 148 -13
34 -29 62 -36 62 -7 0 -20 -16 -28 -36z"/>
</g>
</svg>
